<mxfile host="65bd71144e">
    <diagram id="476jkahuOBYTuhZ4lHAv" name="Page-1">
        <mxGraphModel dx="2263" dy="2078" grid="1" gridSize="5" guides="1" tooltips="1" connect="1" arrows="1" fold="1" page="1" pageScale="1" pageWidth="1169" pageHeight="827" math="0" shadow="0">
            <root>
                <mxCell id="0"/>
                <mxCell id="1" parent="0"/>
                <mxCell id="300" value="" style="rounded=0;whiteSpace=wrap;html=1;labelBackgroundColor=none;strokeColor=none;strokeWidth=0;fontSize=20;gradientColor=default;movable=0;resizable=0;rotatable=0;deletable=0;editable=0;connectable=0;" parent="1" vertex="1">
                    <mxGeometry x="440" y="-515" width="1200" height="125" as="geometry"/>
                </mxCell>
                <mxCell id="299" value="" style="rounded=0;whiteSpace=wrap;html=1;labelBackgroundColor=none;strokeColor=none;strokeWidth=0;fontSize=20;gradientColor=default;movable=0;resizable=0;rotatable=0;deletable=0;editable=0;connectable=0;" parent="1" vertex="1">
                    <mxGeometry x="440" y="-515" width="1200" height="120" as="geometry"/>
                </mxCell>
                <mxCell id="232" value="" style="rounded=0;whiteSpace=wrap;html=1;strokeColor=none;strokeWidth=0;fontSize=40;fillColor=#000000;movable=0;resizable=0;rotatable=0;deletable=0;editable=0;connectable=0;" parent="1" vertex="1">
                    <mxGeometry x="85" y="745" width="1920" height="530" as="geometry"/>
                </mxCell>
                <mxCell id="335" value="&lt;span style=&quot;font-size: 23px;&quot;&gt;The comment box only appears if there are existing comments. Otherwise, only an &quot;Add Comment&quot; button displays.&lt;/span&gt;&lt;span style=&quot;border-color: var(--border-color); font-size: 23px; background-color: initial;&quot;&gt;&lt;br style=&quot;border-color: var(--border-color);&quot;&gt;Allows replies to each comment, limited to one level deep for simplicity.&lt;/span&gt;&lt;span style=&quot;border-color: var(--border-color); font-size: 23px; background-color: initial;&quot;&gt;&lt;br style=&quot;border-color: var(--border-color);&quot;&gt;Conditional display of &quot;Edit&quot; and &quot;Delete&quot; icons, visible only to the comment author.&lt;/span&gt;&lt;span style=&quot;border-color: var(--border-color); font-size: 23px; background-color: initial;&quot;&gt;&lt;br style=&quot;border-color: var(--border-color);&quot;&gt;Comments on posts can continue indefinitely, while replies are restricted to two levels.&lt;/span&gt;&lt;p style=&quot;font-size: 21px;&quot;&gt;&lt;/p&gt;" style="rounded=0;whiteSpace=wrap;html=1;fontSize=21;fontColor=#000000;gradientColor=none;movable=0;resizable=0;rotatable=0;deletable=0;editable=0;connectable=0;verticalAlign=middle;align=left;spacingLeft=20;fillColor=#E6E6E6;strokeWidth=0;strokeColor=none;" parent="1" vertex="1">
                    <mxGeometry x="430" y="805" width="900" height="310" as="geometry"/>
                </mxCell>
                <mxCell id="3" value="" style="rounded=0;whiteSpace=wrap;html=1;movable=0;resizable=0;rotatable=0;deletable=0;editable=0;connectable=0;fillColor=#000000;strokeColor=none;strokeWidth=0;gradientColor=none;" parent="1" vertex="1">
                    <mxGeometry x="80" y="-515" width="1920" height="1080" as="geometry"/>
                </mxCell>
                <mxCell id="305" value="" style="rounded=0;whiteSpace=wrap;html=1;labelBackgroundColor=none;strokeColor=none;strokeWidth=0;fontSize=25;movable=0;resizable=0;rotatable=0;deletable=0;editable=0;connectable=0;fillColor=#bac8d3;" parent="1" vertex="1">
                    <mxGeometry x="80" y="-515" width="1920" height="80" as="geometry"/>
                </mxCell>
                <mxCell id="179" value="" style="rounded=0;whiteSpace=wrap;html=1;movable=0;resizable=0;rotatable=0;deletable=0;editable=0;connectable=0;strokeWidth=0;strokeColor=none;gradientColor=default;" parent="1" vertex="1">
                    <mxGeometry x="440" y="-385" width="1200" height="875" as="geometry"/>
                </mxCell>
                <mxCell id="218" value="&lt;font style=&quot;font-size: 15px;&quot;&gt;Like&lt;/font&gt;" style="rounded=1;whiteSpace=wrap;html=1;strokeColor=none;strokeWidth=0;fontSize=30;fillColor=#0050ef;fontColor=#ffffff;verticalAlign=bottom;movable=0;resizable=0;rotatable=0;deletable=0;editable=0;connectable=0;" parent="1" vertex="1">
                    <mxGeometry x="620" y="1120" width="60" height="35" as="geometry"/>
                </mxCell>
                <mxCell id="230" value="&lt;font style=&quot;font-size: 30px;&quot;&gt;Bottom of Post Content or first Comment Content&lt;/font&gt;" style="rounded=0;whiteSpace=wrap;html=1;strokeColor=none;strokeWidth=0;fontSize=50;fillColor=#bac8d3;horizontal=1;verticalAlign=bottom;movable=0;resizable=0;rotatable=0;deletable=0;editable=0;connectable=0;" parent="1" vertex="1">
                    <mxGeometry x="430" y="745" width="900" height="60" as="geometry"/>
                </mxCell>
                <mxCell id="276" value="&lt;span style=&quot;text-align: left; font-size: 20px;&quot;&gt;&lt;span style=&quot;font-size: 20px;&quot;&gt;&lt;br style=&quot;font-size: 20px;&quot;&gt;&lt;/span&gt;&lt;/span&gt;" style="text;html=1;align=center;verticalAlign=middle;resizable=0;points=[];autosize=1;strokeColor=none;fillColor=none;fontSize=20;movable=0;rotatable=0;deletable=0;editable=0;connectable=0;strokeWidth=0;" parent="1" vertex="1">
                    <mxGeometry x="400" y="-580" width="20" height="40" as="geometry"/>
                </mxCell>
                <mxCell id="279" value="" style="html=1;verticalLabelPosition=bottom;align=center;labelBackgroundColor=#ffffff;verticalAlign=top;strokeWidth=1;strokeColor=#0000FF;shadow=0;dashed=0;shape=mxgraph.ios7.icons.pen;movable=0;resizable=0;rotatable=0;deletable=0;editable=0;connectable=0;" parent="1" vertex="1">
                    <mxGeometry x="1180" y="1062.5" width="35" height="35" as="geometry"/>
                </mxCell>
                <mxCell id="284" value="" style="html=1;verticalLabelPosition=bottom;align=center;labelBackgroundColor=none;verticalAlign=top;strokeWidth=1;strokeColor=#0000FF;shadow=0;dashed=0;shape=mxgraph.ios7.icons.trashcan;movable=0;resizable=0;rotatable=0;deletable=0;editable=0;connectable=0;fontColor=#0000FF;fontStyle=0;" parent="1" vertex="1">
                    <mxGeometry x="1280" y="1065" width="25" height="30" as="geometry"/>
                </mxCell>
                <mxCell id="286" value="&lt;span style=&quot;font-family: Helvetica; font-size: 20px; font-style: normal; font-variant-ligatures: normal; font-variant-caps: normal; font-weight: 400; letter-spacing: normal; orphans: 2; text-align: center; text-indent: 0px; text-transform: none; widows: 2; word-spacing: 0px; -webkit-text-stroke-width: 0px; text-decoration-thickness: initial; text-decoration-style: initial; text-decoration-color: initial; float: none; display: inline !important;&quot;&gt;Sign Out&lt;/span&gt;" style="rounded=0;whiteSpace=wrap;html=1;strokeColor=none;strokeWidth=0;fontSize=20;verticalAlign=middle;movable=0;resizable=0;rotatable=0;deletable=0;editable=0;connectable=0;fillColor=#b0e3e6;" parent="1" vertex="1">
                    <mxGeometry x="1540" y="-485" width="100" height="30" as="geometry"/>
                </mxCell>
                <mxCell id="288" value="Home" style="rounded=0;whiteSpace=wrap;html=1;strokeColor=none;strokeWidth=0;fontSize=20;verticalAlign=middle;movable=0;resizable=0;rotatable=0;deletable=0;editable=0;connectable=0;fillColor=#b0e3e6;" parent="1" vertex="1">
                    <mxGeometry x="1125" y="-485" width="100" height="30" as="geometry"/>
                </mxCell>
                <mxCell id="291" value="&lt;font style=&quot;font-size: 20px;&quot;&gt;Avatar /Profile&lt;/font&gt;" style="rounded=0;whiteSpace=wrap;html=1;strokeColor=none;strokeWidth=0;fontSize=20;verticalAlign=middle;movable=0;resizable=0;rotatable=0;deletable=0;editable=0;connectable=0;fillColor=#b0e3e6;" parent="1" vertex="1">
                    <mxGeometry x="1400" y="-485" width="130" height="30" as="geometry"/>
                </mxCell>
                <mxCell id="294" value="" style="dashed=0;outlineConnect=0;html=1;align=center;labelPosition=center;verticalLabelPosition=bottom;verticalAlign=top;shape=mxgraph.weblogos.freshbump;fillColor=#C2D952;strokeColor=none;fontSize=30;strokeWidth=0;movable=0;resizable=0;rotatable=0;deletable=0;editable=0;connectable=0;rounded=0;" parent="1" vertex="1">
                    <mxGeometry x="440" y="-510" width="70" height="70" as="geometry"/>
                </mxCell>
                <mxCell id="306" value="&lt;br&gt;&lt;u style=&quot;border-color: rgb(0, 0, 0); font-family: Helvetica; font-size: 30px; font-style: normal; font-variant-ligatures: normal; font-variant-caps: normal; font-weight: 400; letter-spacing: normal; orphans: 2; text-align: center; text-indent: 0px; text-transform: none; widows: 2; word-spacing: 0px; -webkit-text-stroke-width: 0px;&quot;&gt;Upcoming Course Dates&lt;/u&gt;&lt;br&gt;" style="rounded=0;whiteSpace=wrap;html=1;labelBackgroundColor=none;strokeColor=none;strokeWidth=0;fontSize=25;verticalAlign=top;movable=0;resizable=0;rotatable=0;deletable=0;editable=0;connectable=0;fillColor=#dae8fc;" parent="1" vertex="1">
                    <mxGeometry x="1340" y="-435" width="300" height="925" as="geometry"/>
                </mxCell>
                <mxCell id="296" value="&lt;font style=&quot;font-size: 20px;&quot;&gt;Search&lt;/font&gt;" style="strokeWidth=0;shadow=0;dashed=0;align=center;html=1;shape=mxgraph.mockup.forms.searchBox;strokeColor=none;mainText=;strokeColor2=#008cff;fontColor=#666666;fontSize=20;align=left;spacingLeft=3;rounded=0;movable=0;resizable=0;rotatable=0;deletable=0;editable=0;connectable=0;" parent="1" vertex="1">
                    <mxGeometry x="535" y="-500" width="480" height="50" as="geometry"/>
                </mxCell>
                <mxCell id="5" value="" style="rounded=0;whiteSpace=wrap;html=1;strokeWidth=0;align=left;verticalAlign=middle;labelPosition=center;verticalLabelPosition=middle;movable=0;resizable=0;rotatable=0;deletable=0;editable=0;connectable=0;strokeColor=none;fillColor=#bac8d3;" parent="1" vertex="1">
                    <mxGeometry x="80" y="485" width="1920" height="80" as="geometry"/>
                </mxCell>
                <mxCell id="301" value="&lt;font style=&quot;font-size: 30px;&quot;&gt;Featured Image&lt;/font&gt;" style="rounded=0;whiteSpace=wrap;html=1;labelBackgroundColor=none;strokeColor=none;strokeWidth=0;fontSize=25;gradientColor=none;movable=0;resizable=0;rotatable=0;deletable=0;editable=0;connectable=0;fillColor=#B3B3B3;" parent="1" vertex="1">
                    <mxGeometry x="440" y="-435" width="900" height="345" as="geometry"/>
                </mxCell>
                <mxCell id="308" value="&lt;span style=&quot;font-family: Helvetica; font-size: 30px; font-style: normal; font-variant-ligatures: normal; font-variant-caps: normal; font-weight: 400; letter-spacing: normal; orphans: 2; text-indent: 0px; text-transform: none; widows: 2; word-spacing: 0px; -webkit-text-stroke-width: 0px; text-decoration-thickness: initial; text-decoration-style: initial; text-decoration-color: initial; float: none; display: inline !important;&quot;&gt;Course1&lt;/span&gt;&lt;br style=&quot;border-color: rgb(0, 0, 0); font-family: Helvetica; font-size: 30px; font-style: normal; font-variant-ligatures: normal; font-variant-caps: normal; font-weight: 400; letter-spacing: normal; orphans: 2; text-indent: 0px; text-transform: none; widows: 2; word-spacing: 0px; -webkit-text-stroke-width: 0px; text-decoration-thickness: initial; text-decoration-style: initial; text-decoration-color: initial;&quot;&gt;&lt;font style=&quot;border-color: rgb(0, 0, 0); font-family: Helvetica; font-style: normal; font-variant-ligatures: normal; font-variant-caps: normal; font-weight: 400; letter-spacing: normal; orphans: 2; text-indent: 0px; text-transform: none; widows: 2; word-spacing: 0px; -webkit-text-stroke-width: 0px; text-decoration-thickness: initial; text-decoration-style: initial; text-decoration-color: initial; font-size: 20px;&quot;&gt;excerpt&lt;/font&gt;&lt;br style=&quot;border-color: rgb(0, 0, 0); font-family: Helvetica; font-size: 30px; font-style: normal; font-variant-ligatures: normal; font-variant-caps: normal; font-weight: 400; letter-spacing: normal; orphans: 2; text-indent: 0px; text-transform: none; widows: 2; word-spacing: 0px; -webkit-text-stroke-width: 0px; text-decoration-thickness: initial; text-decoration-style: initial; text-decoration-color: initial;&quot;&gt;&lt;br style=&quot;border-color: rgb(0, 0, 0); font-family: Helvetica; font-size: 30px; font-style: normal; font-variant-ligatures: normal; font-variant-caps: normal; font-weight: 400; letter-spacing: normal; orphans: 2; text-indent: 0px; text-transform: none; widows: 2; word-spacing: 0px; -webkit-text-stroke-width: 0px; text-decoration-thickness: initial; text-decoration-style: initial; text-decoration-color: initial;&quot;&gt;&lt;br style=&quot;border-color: rgb(0, 0, 0); font-family: Helvetica; font-size: 30px; font-style: normal; font-variant-ligatures: normal; font-variant-caps: normal; font-weight: 400; letter-spacing: normal; orphans: 2; text-indent: 0px; text-transform: none; widows: 2; word-spacing: 0px; -webkit-text-stroke-width: 0px; text-decoration-thickness: initial; text-decoration-style: initial; text-decoration-color: initial;&quot;&gt;&lt;span style=&quot;font-family: Helvetica; font-size: 30px; font-style: normal; font-variant-ligatures: normal; font-variant-caps: normal; font-weight: 400; letter-spacing: normal; orphans: 2; text-indent: 0px; text-transform: none; widows: 2; word-spacing: 0px; -webkit-text-stroke-width: 0px; text-decoration-thickness: initial; text-decoration-style: initial; text-decoration-color: initial; float: none; display: inline !important;&quot;&gt;Course 2&lt;/span&gt;&lt;br style=&quot;border-color: rgb(0, 0, 0); font-family: Helvetica; font-size: 30px; font-style: normal; font-variant-ligatures: normal; font-variant-caps: normal; font-weight: 400; letter-spacing: normal; orphans: 2; text-indent: 0px; text-transform: none; widows: 2; word-spacing: 0px; -webkit-text-stroke-width: 0px; text-decoration-thickness: initial; text-decoration-style: initial; text-decoration-color: initial;&quot;&gt;&lt;font style=&quot;border-color: rgb(0, 0, 0); font-family: Helvetica; font-style: normal; font-variant-ligatures: normal; font-variant-caps: normal; font-weight: 400; letter-spacing: normal; orphans: 2; text-indent: 0px; text-transform: none; widows: 2; word-spacing: 0px; -webkit-text-stroke-width: 0px; text-decoration-thickness: initial; text-decoration-style: initial; text-decoration-color: initial; font-size: 20px;&quot;&gt;excerpt&lt;/font&gt;&lt;br style=&quot;border-color: rgb(0, 0, 0); font-family: Helvetica; font-size: 30px; font-style: normal; font-variant-ligatures: normal; font-variant-caps: normal; font-weight: 400; letter-spacing: normal; orphans: 2; text-indent: 0px; text-transform: none; widows: 2; word-spacing: 0px; -webkit-text-stroke-width: 0px; text-decoration-thickness: initial; text-decoration-style: initial; text-decoration-color: initial;&quot;&gt;&lt;br style=&quot;border-color: rgb(0, 0, 0); font-family: Helvetica; font-size: 30px; font-style: normal; font-variant-ligatures: normal; font-variant-caps: normal; font-weight: 400; letter-spacing: normal; orphans: 2; text-indent: 0px; text-transform: none; widows: 2; word-spacing: 0px; -webkit-text-stroke-width: 0px; text-decoration-thickness: initial; text-decoration-style: initial; text-decoration-color: initial;&quot;&gt;&lt;br style=&quot;border-color: rgb(0, 0, 0); font-family: Helvetica; font-size: 30px; font-style: normal; font-variant-ligatures: normal; font-variant-caps: normal; font-weight: 400; letter-spacing: normal; orphans: 2; text-indent: 0px; text-transform: none; widows: 2; word-spacing: 0px; -webkit-text-stroke-width: 0px; text-decoration-thickness: initial; text-decoration-style: initial; text-decoration-color: initial;&quot;&gt;&lt;br style=&quot;border-color: rgb(0, 0, 0); font-family: Helvetica; font-size: 30px; font-style: normal; font-variant-ligatures: normal; font-variant-caps: normal; font-weight: 400; letter-spacing: normal; orphans: 2; text-indent: 0px; text-transform: none; widows: 2; word-spacing: 0px; -webkit-text-stroke-width: 0px; text-decoration-thickness: initial; text-decoration-style: initial; text-decoration-color: initial;&quot;&gt;&lt;span style=&quot;font-family: Helvetica; font-size: 30px; font-style: normal; font-variant-ligatures: normal; font-variant-caps: normal; font-weight: 400; letter-spacing: normal; orphans: 2; text-indent: 0px; text-transform: none; widows: 2; word-spacing: 0px; -webkit-text-stroke-width: 0px; text-decoration-thickness: initial; text-decoration-style: initial; text-decoration-color: initial; float: none; display: inline !important;&quot;&gt;Course 3&lt;/span&gt;&lt;br style=&quot;border-color: rgb(0, 0, 0); font-family: Helvetica; font-size: 30px; font-style: normal; font-variant-ligatures: normal; font-variant-caps: normal; font-weight: 400; letter-spacing: normal; orphans: 2; text-indent: 0px; text-transform: none; widows: 2; word-spacing: 0px; -webkit-text-stroke-width: 0px; text-decoration-thickness: initial; text-decoration-style: initial; text-decoration-color: initial;&quot;&gt;&lt;font style=&quot;border-color: rgb(0, 0, 0); font-family: Helvetica; font-style: normal; font-variant-ligatures: normal; font-variant-caps: normal; font-weight: 400; letter-spacing: normal; orphans: 2; text-indent: 0px; text-transform: none; widows: 2; word-spacing: 0px; -webkit-text-stroke-width: 0px; text-decoration-thickness: initial; text-decoration-style: initial; text-decoration-color: initial; font-size: 20px;&quot;&gt;excerpt&lt;/font&gt;" style="text;whiteSpace=wrap;html=1;fontSize=25;strokeWidth=0;align=center;verticalAlign=middle;movable=0;resizable=0;rotatable=0;deletable=0;editable=0;connectable=0;strokeColor=none;" parent="1" vertex="1">
                    <mxGeometry x="1355" y="-250" width="265" height="670" as="geometry"/>
                </mxCell>
                <mxCell id="311" value="&lt;span style=&quot;color: rgb(153, 0, 77); font-size: 20px;&quot;&gt;Sticky Sidebar 300px&lt;/span&gt;" style="text;html=1;strokeColor=none;fillColor=none;align=center;verticalAlign=middle;whiteSpace=wrap;rounded=0;labelBackgroundColor=none;strokeWidth=0;fontSize=25;movable=0;resizable=0;rotatable=0;deletable=0;editable=0;connectable=0;" parent="1" vertex="1">
                    <mxGeometry x="1340" y="430" width="300" height="55" as="geometry"/>
                </mxCell>
                <mxCell id="312" value="Comments Section" style="rounded=0;whiteSpace=wrap;html=1;labelBackgroundColor=none;strokeColor=none;strokeWidth=0;fontSize=25;fillColor=#CCCCCC;gradientColor=none;movable=0;resizable=0;rotatable=0;deletable=0;editable=0;connectable=0;fillStyle=auto;" parent="1" vertex="1">
                    <mxGeometry x="440" y="260" width="900" height="225" as="geometry"/>
                </mxCell>
                <mxCell id="319" value="&lt;font style=&quot;font-size: 30px;&quot;&gt;Post Content&lt;/font&gt;" style="rounded=0;whiteSpace=wrap;html=1;labelBackgroundColor=none;strokeColor=none;strokeWidth=0;fontSize=36;fillColor=#bac8d3;movable=0;resizable=0;rotatable=0;deletable=0;editable=0;connectable=0;" parent="1" vertex="1">
                    <mxGeometry x="440" y="-90" width="900" height="300" as="geometry"/>
                </mxCell>
                <mxCell id="320" value="Like" style="rounded=1;fillColor=#0057D8;align=center;strokeColor=none;html=1;fontColor=#ffffff;fontSize=12;sketch=0;labelBackgroundColor=none;strokeWidth=0;movable=0;resizable=0;rotatable=0;deletable=0;editable=0;connectable=0;" parent="1" vertex="1">
                    <mxGeometry x="460" y="220" width="80" height="33" as="geometry"/>
                </mxCell>
                <mxCell id="325" value="&lt;font style=&quot;font-size: 20px;&quot;&gt;Author&lt;/font&gt;" style="text;html=1;strokeColor=none;fillColor=none;align=center;verticalAlign=middle;whiteSpace=wrap;rounded=0;labelBackgroundColor=none;strokeWidth=0;fontSize=12;fontColor=#000000;movable=0;resizable=0;rotatable=0;deletable=0;editable=0;connectable=0;" parent="1" vertex="1">
                    <mxGeometry x="460" y="165" width="60" height="33" as="geometry"/>
                </mxCell>
                <mxCell id="327" value="Comment Button" style="rounded=1;fillColor=#0057D8;align=center;strokeColor=none;html=1;fontColor=#ffffff;fontSize=12;sketch=0;labelBackgroundColor=none;strokeWidth=0;movable=0;resizable=0;rotatable=0;deletable=0;editable=0;connectable=0;" parent="1" vertex="1">
                    <mxGeometry x="685" y="220" width="240" height="33" as="geometry"/>
                </mxCell>
                <mxCell id="328" value="&lt;span style=&quot;font-size: 20px;&quot;&gt;Day and Time posted&lt;/span&gt;" style="text;html=1;strokeColor=none;fillColor=none;align=center;verticalAlign=middle;whiteSpace=wrap;rounded=0;labelBackgroundColor=none;strokeWidth=0;fontSize=12;fontColor=#000000;movable=0;resizable=0;rotatable=0;deletable=0;editable=0;connectable=0;" parent="1" vertex="1">
                    <mxGeometry x="585" y="165" width="255" height="33" as="geometry"/>
                </mxCell>
                <mxCell id="333" value="Footer with Social Media Links" style="text;html=1;strokeColor=none;fillColor=none;align=center;verticalAlign=middle;whiteSpace=wrap;rounded=0;labelBackgroundColor=none;strokeWidth=0;fontSize=30;fontColor=#000000;movable=0;resizable=0;rotatable=0;deletable=0;editable=0;connectable=0;" parent="1" vertex="1">
                    <mxGeometry x="650" y="515" width="480" height="30" as="geometry"/>
                </mxCell>
                <mxCell id="334" value="&lt;font color=&quot;#000000&quot; style=&quot;font-size: 20px;&quot;&gt;Number of Likes&lt;/font&gt;" style="text;html=1;strokeColor=none;fillColor=none;align=center;verticalAlign=middle;whiteSpace=wrap;rounded=0;fontSize=15;movable=0;resizable=0;rotatable=0;deletable=0;editable=0;connectable=0;strokeWidth=0;" parent="1" vertex="1">
                    <mxGeometry x="1080" y="165" width="155" height="33" as="geometry"/>
                </mxCell>
                <mxCell id="336" value="&lt;font style=&quot;font-size: 15px;&quot;&gt;Comment Author&lt;/font&gt;" style="text;html=1;strokeColor=none;fillColor=none;align=center;verticalAlign=middle;whiteSpace=wrap;rounded=0;fontSize=21;fontColor=#000000;movable=0;resizable=0;rotatable=0;deletable=0;editable=0;connectable=0;strokeWidth=0;" parent="1" vertex="1">
                    <mxGeometry x="435" y="1070" width="120" height="30" as="geometry"/>
                </mxCell>
                <mxCell id="337" value="&lt;span style=&quot;font-size: 15px;&quot;&gt;Number of likes&lt;/span&gt;" style="text;html=1;strokeColor=none;fillColor=none;align=center;verticalAlign=middle;whiteSpace=wrap;rounded=0;fontSize=21;fontColor=#000000;movable=0;resizable=0;rotatable=0;deletable=0;editable=0;connectable=0;strokeWidth=0;" parent="1" vertex="1">
                    <mxGeometry x="750" y="1072.5" width="120" height="30" as="geometry"/>
                </mxCell>
                <mxCell id="338" value="&lt;font style=&quot;font-size: 15px;&quot;&gt;Date/Time&lt;/font&gt;" style="text;html=1;strokeColor=none;fillColor=none;align=center;verticalAlign=middle;whiteSpace=wrap;rounded=0;fontSize=21;fontColor=#000000;movable=0;resizable=0;rotatable=0;deletable=0;editable=0;connectable=0;strokeWidth=0;" parent="1" vertex="1">
                    <mxGeometry x="585" y="1072.5" width="120" height="30" as="geometry"/>
                </mxCell>
                <mxCell id="339" value="&lt;span style=&quot;color: rgb(240, 240, 240); font-size: 15px;&quot;&gt;Comment Button&lt;/span&gt;" style="rounded=1;whiteSpace=wrap;html=1;strokeColor=none;strokeWidth=0;fontSize=30;fillColor=#0050ef;fontColor=#ffffff;verticalAlign=bottom;movable=0;resizable=0;rotatable=0;deletable=0;editable=0;connectable=0;" parent="1" vertex="1">
                    <mxGeometry x="880" y="1120" width="135" height="35" as="geometry"/>
                </mxCell>
                <mxCell id="342" value="&lt;span style=&quot;font-size: 20px;&quot;&gt;Dropdown box for commenting on posts actioned by comment button&lt;/span&gt;" style="rounded=0;whiteSpace=wrap;html=1;fontFamily=Helvetica;fontSize=20;fontColor=#000000;gradientColor=none;verticalAlign=middle;align=center;movable=0;resizable=0;rotatable=0;deletable=0;editable=0;connectable=0;fillColor=#CCCCCC;strokeWidth=0;strokeColor=none;" parent="1" vertex="1">
                    <mxGeometry x="430" y="1165" width="900" height="105" as="geometry"/>
                </mxCell>
                <mxCell id="352" style="edgeStyle=none;html=1;exitX=1;exitY=1;exitDx=0;exitDy=0;fontFamily=Helvetica;fontSize=37;fontColor=#0000FF;movable=0;resizable=0;rotatable=0;deletable=0;editable=0;connectable=0;" parent="1" edge="1">
                    <mxGeometry relative="1" as="geometry">
                        <mxPoint x="3305" y="850" as="sourcePoint"/>
                        <mxPoint x="3305" y="542.4267399267401" as="targetPoint"/>
                    </mxGeometry>
                </mxCell>
                <mxCell id="354" value="------------------------------&amp;nbsp; 900px width&amp;nbsp; ------------------------------" style="text;html=1;strokeColor=none;fillColor=none;align=center;verticalAlign=middle;whiteSpace=wrap;rounded=0;strokeWidth=0;fontColor=#CC0000;fontSize=20;movable=0;resizable=0;rotatable=0;deletable=0;editable=0;connectable=0;" parent="1" vertex="1">
                    <mxGeometry x="450" y="442.5" width="870" height="30" as="geometry"/>
                </mxCell>
                <mxCell id="355" style="edgeStyle=none;html=1;exitX=0.5;exitY=1;exitDx=0;exitDy=0;entryX=0.25;entryY=1;entryDx=0;entryDy=0;fontSize=20;fontColor=#CC0000;movable=0;resizable=0;rotatable=0;deletable=0;editable=0;connectable=0;strokeWidth=0;strokeColor=none;" parent="1" source="354" target="354" edge="1">
                    <mxGeometry relative="1" as="geometry"/>
                </mxCell>
                <mxCell id="361" value="Courses" style="rounded=0;whiteSpace=wrap;html=1;strokeColor=none;strokeWidth=0;fontSize=20;verticalAlign=middle;movable=0;resizable=0;rotatable=0;deletable=0;editable=0;connectable=0;fillColor=#b0e3e6;" vertex="1" parent="1">
                    <mxGeometry x="1265" y="-485" width="100" height="30" as="geometry"/>
                </mxCell>
                <mxCell id="374" value="&lt;font style=&quot;font-size: 20px;&quot;&gt;&lt;u style=&quot;font-size: 20px;&quot;&gt;Note:&amp;nbsp; &lt;/u&gt;&lt;br style=&quot;font-size: 20px;&quot;&gt;&lt;br style=&quot;font-size: 20px;&quot;&gt;Navigation shows Signed in display&lt;br style=&quot;font-size: 20px;&quot;&gt;&lt;br style=&quot;font-size: 20px;&quot;&gt;&lt;span style=&quot;border-color: var(--border-color); font-size: 20px;&quot;&gt;&lt;br style=&quot;font-size: 20px;&quot;&gt;Post Detail -&amp;nbsp;&lt;/span&gt;&lt;span style=&quot;border-color: var(--border-color); font-size: 20px;&quot;&gt;Desktop screen 1920 x 1080, m&lt;/span&gt;&lt;span style=&quot;border-color: var(--border-color); background-color: initial; font-size: 20px;&quot;&gt;ain view limited to 1200 wide&lt;/span&gt;&lt;/font&gt;" style="text;html=1;strokeColor=none;fillColor=none;align=left;verticalAlign=middle;whiteSpace=wrap;rounded=0;labelBackgroundColor=none;fillStyle=auto;fontColor=#FFFFFF;strokeWidth=0;spacingLeft=10;fontSize=20;movable=0;resizable=0;rotatable=0;deletable=0;editable=0;connectable=0;" vertex="1" parent="1">
                    <mxGeometry x="1670" y="-365" width="285" height="670" as="geometry"/>
                </mxCell>
                <mxCell id="376" value="&lt;font color=&quot;#ffffff&quot;&gt;&lt;span style=&quot;border-color: var(--border-color); font-size: 20px; text-align: left;&quot;&gt;Post Detail - Comments Expanded -&amp;nbsp;&lt;/span&gt;&lt;span style=&quot;border-color: var(--border-color); font-size: 20px; text-align: left;&quot;&gt;Desktop screen 1920 x 1080, m&lt;/span&gt;&lt;span style=&quot;border-color: var(--border-color); font-size: 20px; background-color: initial; text-align: left;&quot;&gt;ain view limited to 1200 wide&lt;/span&gt;&lt;/font&gt;" style="text;html=1;align=center;verticalAlign=middle;whiteSpace=wrap;rounded=0;labelBackgroundColor=none;fillStyle=auto;strokeWidth=0;movable=0;resizable=0;rotatable=0;deletable=0;editable=0;connectable=0;strokeColor=none;" vertex="1" parent="1">
                    <mxGeometry x="1710" y="912.5" width="240" height="195" as="geometry"/>
                </mxCell>
                <mxCell id="379" value="" style="rounded=0;whiteSpace=wrap;html=1;labelBackgroundColor=#FFFFFF;sketch=0;fillStyle=auto;strokeColor=none;strokeWidth=0;fontSize=20;fontColor=#0000CC;fillColor=#CCCCCC;gradientColor=none;movable=0;resizable=0;rotatable=0;deletable=0;editable=0;connectable=0;" vertex="1" parent="1">
                    <mxGeometry x="1330" y="745" width="300" height="525" as="geometry"/>
                </mxCell>
                <mxCell id="380" value="&lt;font style=&quot;font-size: 20px;&quot;&gt;&lt;span style=&quot;border-color: var(--border-color);&quot;&gt;Course1&lt;/span&gt;&lt;br style=&quot;border-color: rgb(0, 0, 0);&quot;&gt;&lt;font style=&quot;border-color: rgb(0, 0, 0); font-size: 20px;&quot;&gt;excerpt&lt;/font&gt;&lt;br style=&quot;border-color: rgb(0, 0, 0);&quot;&gt;&lt;br style=&quot;border-color: rgb(0, 0, 0);&quot;&gt;&lt;br style=&quot;border-color: rgb(0, 0, 0);&quot;&gt;&lt;span style=&quot;border-color: var(--border-color);&quot;&gt;Course 2&lt;/span&gt;&lt;br style=&quot;border-color: rgb(0, 0, 0);&quot;&gt;&lt;font style=&quot;border-color: rgb(0, 0, 0); font-size: 20px;&quot;&gt;excerpt&lt;/font&gt;&lt;br style=&quot;border-color: rgb(0, 0, 0);&quot;&gt;&lt;br style=&quot;border-color: rgb(0, 0, 0);&quot;&gt;&lt;br style=&quot;border-color: rgb(0, 0, 0);&quot;&gt;&lt;br style=&quot;border-color: rgb(0, 0, 0);&quot;&gt;&lt;span style=&quot;border-color: var(--border-color);&quot;&gt;Course 3&lt;/span&gt;&lt;br style=&quot;border-color: rgb(0, 0, 0);&quot;&gt;&lt;font style=&quot;border-color: rgb(0, 0, 0); font-size: 20px;&quot;&gt;excerpt&lt;/font&gt;&lt;/font&gt;" style="text;html=1;strokeColor=none;fillColor=none;align=center;verticalAlign=middle;whiteSpace=wrap;rounded=0;labelBackgroundColor=none;sketch=0;fillStyle=auto;strokeWidth=0;fontSize=20;fontColor=#000000;movable=0;resizable=0;rotatable=0;deletable=0;editable=0;connectable=0;" vertex="1" parent="1">
                    <mxGeometry x="1330" y="805" width="300" height="465" as="geometry"/>
                </mxCell>
                <mxCell id="382" value="&lt;br style=&quot;border-color: var(--border-color); font-size: 25px;&quot;&gt;&lt;u style=&quot;border-color: rgb(0, 0, 0); font-size: 30px;&quot;&gt;Upcoming Course Dates&lt;/u&gt;" style="text;html=1;strokeColor=none;fillColor=none;align=center;verticalAlign=middle;whiteSpace=wrap;rounded=0;labelBackgroundColor=none;sketch=0;fillStyle=auto;strokeWidth=0;fontSize=20;fontColor=#000000;movable=0;resizable=0;rotatable=0;deletable=0;editable=0;connectable=0;" vertex="1" parent="1">
                    <mxGeometry x="1365" y="765" width="250" height="30" as="geometry"/>
                </mxCell>
            </root>
        </mxGraphModel>
    </diagram>
</mxfile>